<svg width="39" height="30" viewBox="0 0 39 30" fill="none" xmlns="http://www.w3.org/2000/svg">
<path d="M7.04257 29.8311V27.8448C7.05289 27.6893 7.03234 27.5332 6.9821 27.3857C6.93186 27.2381 6.85293 27.1019 6.74985 26.985C6.64677 26.8681 6.52157 26.7727 6.38147 26.7043C6.24137 26.636 6.08914 26.5961 5.93354 26.5868H5.78456C5.56566 26.5717 5.34674 26.6161 5.15095 26.7151C4.95516 26.8142 4.78976 26.9643 4.67222 27.1496C4.56381 26.9711 4.40967 26.8248 4.22574 26.7258C4.04181 26.6269 3.83479 26.5789 3.62608 26.5868C3.44391 26.5769 3.26235 26.6152 3.09963 26.6977C2.93692 26.7802 2.79879 26.9041 2.69913 27.0569V26.6662H2.02377V29.8311H2.71899V28.0898C2.70544 27.9937 2.71097 27.8959 2.73525 27.8019C2.75954 27.708 2.80211 27.6197 2.86053 27.5422C2.91895 27.4648 2.99208 27.3996 3.07572 27.3504C3.15936 27.3012 3.25189 27.2689 3.348 27.2555C3.39642 27.2506 3.44523 27.2506 3.49366 27.2555C3.95052 27.2555 4.18225 27.5535 4.18225 28.0898V29.851H4.87747V28.0898C4.86447 27.9928 4.8708 27.8942 4.89609 27.7996C4.92139 27.7051 4.96515 27.6165 5.02485 27.5389C5.08456 27.4613 5.15902 27.3964 5.24396 27.3477C5.32889 27.2991 5.42261 27.2678 5.51972 27.2555C5.56372 27.2506 5.60814 27.2506 5.65214 27.2555C6.12224 27.2555 6.34736 27.5535 6.34736 28.0898V29.851L7.04257 29.8311ZM17.3285 26.6662H16.1963V25.7062H15.501V26.6662H14.872V27.2952H15.5143V28.7519C15.5143 29.4868 15.799 29.9238 16.6134 29.9238C16.9176 29.9248 17.216 29.8399 17.4741 29.6788L17.2755 29.0896C17.0907 29.1994 16.8812 29.2609 16.6664 29.2683C16.3353 29.2683 16.2095 29.0565 16.2095 28.7386V27.2952H17.3351L17.3285 26.6662ZM23.2014 26.5868C23.0336 26.5822 22.8676 26.6228 22.7208 26.7043C22.5741 26.7859 22.4519 26.9053 22.3671 27.0503V26.6662H21.6852V29.8311H22.3738V28.0567C22.3738 27.5336 22.5989 27.2423 23.0359 27.2423C23.1831 27.2404 23.3293 27.2674 23.4662 27.3217L23.6781 26.6596C23.5209 26.6033 23.3552 26.5742 23.1882 26.5735L23.2014 26.5868ZM14.3225 26.9178C13.933 26.6854 13.4846 26.5704 13.0314 26.5868C12.2302 26.5868 11.7071 26.9708 11.7071 27.5998C11.7071 28.1163 12.0912 28.4341 12.7996 28.5334L13.1307 28.5797C13.5081 28.6327 13.6869 28.732 13.6869 28.9108C13.6869 29.1558 13.4353 29.2948 12.9652 29.2948C12.5871 29.305 12.2166 29.1885 11.9124 28.9638L11.5813 29.5001C11.9835 29.778 12.4632 29.9217 12.9519 29.9106C13.8656 29.9106 14.3953 29.4802 14.3953 28.8777C14.3953 28.2752 13.9782 28.0302 13.2896 27.9309L12.9585 27.8845C12.6606 27.8448 12.4222 27.7852 12.4222 27.5733C12.4222 27.3615 12.6473 27.2026 13.0247 27.2026C13.3735 27.2072 13.7153 27.3006 14.0179 27.474L14.3225 26.9178ZM32.7656 26.5868C32.5981 26.5817 32.4324 26.6222 32.2861 26.7038C32.1398 26.7854 32.0183 26.9051 31.9346 27.0503V26.6662H31.2527V29.8311H31.9379V28.0567C31.9379 27.5336 32.1631 27.2423 32.6001 27.2423C32.7474 27.2401 32.8936 27.2671 33.0304 27.3217L33.2423 26.6596C33.0852 26.6027 32.9194 26.5736 32.7523 26.5735L32.7656 26.5868ZM23.8966 28.2421C23.8814 28.6646 24.0341 29.0759 24.3213 29.3861C24.6086 29.6963 25.007 29.8801 25.4294 29.8973C25.4812 29.9007 25.5332 29.9007 25.585 29.8973C25.9982 29.9165 26.4038 29.782 26.7238 29.5199L26.3928 28.9638C26.1547 29.1453 25.8645 29.2451 25.5651 29.2485C25.3106 29.2279 25.0731 29.1122 24.9 28.9245C24.7269 28.7368 24.6308 28.4908 24.6308 28.2354C24.6308 27.9801 24.7269 27.7341 24.9 27.5464C25.0731 27.3587 25.3106 27.243 25.5651 27.2224C25.8645 27.2257 26.1547 27.3256 26.3928 27.5071L26.7238 26.9509C26.4048 26.6872 25.9984 26.5525 25.585 26.5735C25.3752 26.5615 25.1651 26.5909 24.9667 26.66C24.7682 26.7292 24.5854 26.8368 24.4286 26.9767C24.2718 27.1166 24.1441 27.2861 24.0528 27.4753C23.9615 27.6646 23.9084 27.87 23.8966 28.0798C23.8933 28.1317 23.8933 28.1836 23.8966 28.2354V28.2421ZM30.3456 28.2421V26.6662H29.657V27.0503C29.54 26.8998 29.389 26.7793 29.2163 26.6987C29.0436 26.6181 28.8542 26.5798 28.6638 26.5868C28.2248 26.5868 27.8038 26.7612 27.4933 27.0716C27.1829 27.382 27.0085 27.8031 27.0085 28.2421C27.0085 28.6811 27.1829 29.1021 27.4933 29.4125C27.8038 29.7229 28.2248 29.8973 28.6638 29.8973C28.8542 29.9044 29.0436 29.866 29.2163 29.7854C29.389 29.7048 29.54 29.5843 29.657 29.4339V29.8179H30.3456V28.2421ZM27.7832 28.2421C27.7932 27.998 27.8984 27.7675 28.0764 27.6001C28.2543 27.4327 28.4908 27.3418 28.735 27.3468C28.9793 27.3517 29.2119 27.4523 29.3828 27.6268C29.5538 27.8013 29.6496 28.0358 29.6496 28.2801C29.6496 28.5244 29.5538 28.759 29.3828 28.9335C29.2119 29.108 28.9793 29.2085 28.735 29.2135C28.4908 29.2185 28.2543 29.1275 28.0764 28.9602C27.8984 28.7928 27.7932 28.5623 27.7832 28.3182C27.7818 28.2951 27.7818 28.2718 27.7832 28.2487V28.2421ZM19.4737 26.5868C19.0347 26.5929 18.6161 26.7732 18.31 27.088C18.004 27.4028 17.8355 27.8262 17.8416 28.2652C17.8478 28.7042 18.028 29.1228 18.3428 29.4289C18.6576 29.735 19.081 29.9035 19.5201 29.8973C19.9952 29.9203 20.462 29.7671 20.831 29.467L20.5 28.9571C20.2378 29.1655 19.9144 29.2818 19.5796 29.2882C19.3522 29.3069 19.1264 29.2366 18.9498 29.0921C18.7731 28.9476 18.6595 28.7402 18.6328 28.5135H20.9833C20.9833 28.4275 20.9833 28.3414 20.9833 28.2487C20.9833 27.2555 20.3676 26.5934 19.4803 26.5934L19.4737 26.5868ZM19.4737 27.2026C19.5767 27.2004 19.6792 27.2185 19.7752 27.2559C19.8713 27.2933 19.959 27.3493 20.0334 27.4206C20.1078 27.4919 20.1674 27.5772 20.2088 27.6716C20.2503 27.7659 20.2727 27.8676 20.2749 27.9706H18.6196C18.6307 27.7578 18.7252 27.5579 18.8826 27.4142C19.0399 27.2704 19.2475 27.1944 19.4605 27.2026H19.4737ZM36.7217 28.2487V25.395H36.0596V27.0503C35.943 26.8994 35.792 26.7786 35.6193 26.698C35.4465 26.6173 35.2569 26.5792 35.0664 26.5868C34.6274 26.5868 34.2064 26.7612 33.896 27.0716C33.5855 27.382 33.4111 27.8031 33.4111 28.2421C33.4111 28.6811 33.5855 29.1021 33.896 29.4125C34.2064 29.7229 34.6274 29.8973 35.0664 29.8973C35.2569 29.9049 35.4465 29.8668 35.6193 29.7862C35.792 29.7055 35.943 29.5847 36.0596 29.4339V29.8179H36.7217V28.2487ZM37.8705 29.371C37.9137 29.3715 37.9565 29.3805 37.9963 29.3974C38.0325 29.4144 38.066 29.4368 38.0956 29.4637C38.1247 29.4922 38.1482 29.5259 38.1651 29.563C38.1964 29.6416 38.1964 29.7293 38.1651 29.808C38.149 29.8455 38.1253 29.8793 38.0956 29.9073C38.067 29.9364 38.0334 29.9599 37.9963 29.9768C37.9562 29.9926 37.9135 30.0005 37.8705 30C37.8192 29.9976 37.7693 29.9833 37.7245 29.9583C37.6797 29.9332 37.6414 29.8981 37.6125 29.8558C37.5836 29.8134 37.565 29.7649 37.558 29.7141C37.5511 29.6633 37.556 29.6115 37.5725 29.563C37.5894 29.5259 37.6129 29.4922 37.642 29.4637C37.6714 29.4349 37.7063 29.4124 37.7447 29.3974C37.7845 29.3805 37.8272 29.3715 37.8705 29.371ZM37.8705 29.9304C37.9021 29.9371 37.9348 29.9371 37.9665 29.9304C37.9938 29.9159 38.0194 29.8981 38.0426 29.8775C38.084 29.8323 38.107 29.7732 38.107 29.712C38.107 29.6507 38.084 29.5916 38.0426 29.5464C38.0203 29.5248 37.9945 29.5069 37.9665 29.4935C37.9043 29.4715 37.8366 29.4715 37.7745 29.4935C37.7449 29.506 37.718 29.524 37.695 29.5464C37.6536 29.5916 37.6306 29.6507 37.6306 29.712C37.6306 29.7732 37.6536 29.8323 37.695 29.8775C37.718 29.8999 37.7449 29.9179 37.7745 29.9304C37.8061 29.9371 37.8388 29.9371 37.8705 29.9304ZM37.8903 29.5398C37.9208 29.5376 37.9511 29.5458 37.9764 29.563C37.9858 29.5719 37.9933 29.5827 37.9984 29.5947C38.0036 29.6066 38.0062 29.6195 38.0062 29.6325C38.0067 29.6435 38.0049 29.6545 38.0009 29.6647C37.9969 29.675 37.9908 29.6843 37.983 29.6921C37.9632 29.7086 37.9391 29.7189 37.9135 29.7219L38.0095 29.8311H37.9334L37.844 29.7219H37.8175V29.8311H37.7546V29.5398H37.8903ZM37.8175 29.5928V29.6722H37.887C37.9 29.6761 37.9138 29.6761 37.9267 29.6722C37.9317 29.669 37.9358 29.6646 37.9387 29.6594C37.9416 29.6542 37.9432 29.6484 37.9433 29.6424C37.9429 29.6365 37.9412 29.6308 37.9384 29.6257C37.9355 29.6205 37.9315 29.6161 37.9267 29.6126C37.9138 29.6088 37.9 29.6088 37.887 29.6126L37.8175 29.5928ZM34.1759 28.2487C34.1858 27.9932 34.2956 27.7517 34.4817 27.5763C34.6677 27.4008 34.9151 27.3053 35.1708 27.3103C35.4265 27.3153 35.67 27.4204 35.849 27.603C36.0281 27.7855 36.1284 28.031 36.1284 28.2868C36.1284 28.5425 36.0281 28.788 35.849 28.9706C35.67 29.1531 35.4265 29.2582 35.1708 29.2632C34.9151 29.2682 34.6677 29.1727 34.4817 28.9972C34.2956 28.8218 34.1858 28.5804 34.1759 28.3248V28.2487ZM10.9259 28.2487V26.6662H10.2373V27.0503C10.1207 26.8994 9.96971 26.7786 9.79694 26.698C9.62416 26.6173 9.43461 26.5792 9.24409 26.5868C8.80509 26.5868 8.38406 26.7612 8.07364 27.0716C7.76321 27.382 7.58882 27.8031 7.58882 28.2421C7.58882 28.6811 7.76321 29.1021 8.07364 29.4125C8.38406 29.7229 8.80509 29.8973 9.24409 29.8973C9.43461 29.9049 9.62416 29.8668 9.79694 29.7862C9.96971 29.7055 10.1207 29.5847 10.2373 29.4339V29.8179H10.9259V28.2487ZM8.36349 28.2487C8.37345 27.9932 8.48325 27.7517 8.66927 27.5763C8.8553 27.4008 9.10273 27.3053 9.3584 27.3103C9.61406 27.3153 9.85758 27.4204 10.0366 27.603C10.2157 27.7855 10.316 28.031 10.316 28.2868C10.316 28.5425 10.2157 28.788 10.0366 28.9706C9.85758 29.1531 9.61406 29.2582 9.3584 29.2632C9.10273 29.2682 8.8553 29.1727 8.66927 28.9972C8.48325 28.8218 8.37345 28.5804 8.36349 28.3248V28.2487Z" fill="white"/>
<path d="M24.5223 2.54883H14.094V21.2899H24.5223V2.54883Z" fill="#FF5F00"/>
<path d="M14.7561 11.921C14.7542 10.1159 15.1631 8.33395 15.9517 6.71018C16.7404 5.08642 17.8882 3.66339 19.3082 2.54885C17.55 1.1671 15.4385 0.307868 13.2151 0.0693623C10.9916 -0.169143 8.74597 0.222699 6.73471 1.20011C4.72345 2.17751 3.02774 3.70105 1.84139 5.59659C0.655045 7.49213 0.0259199 9.6832 0.0259199 11.9194C0.0259199 14.1556 0.655045 16.3466 1.84139 18.2422C3.02774 20.1377 4.72345 21.6612 6.73471 22.6386C8.74597 23.6161 10.9916 24.0079 13.2151 23.7694C15.4385 23.5309 17.55 22.6717 19.3082 21.2899C17.8886 20.1757 16.7411 18.7532 15.9524 17.1301C15.1638 15.5069 14.7547 13.7256 14.7561 11.921Z" fill="#EB001B"/>
<path d="M38.5922 11.921C38.5921 14.1574 37.9629 16.3486 36.7763 18.2442C35.5898 20.1398 33.8938 21.6633 31.8823 22.6406C29.8708 23.6178 27.6249 24.0094 25.4013 23.7706C23.1778 23.5317 21.0663 22.6721 19.3082 21.2899C20.7272 20.1747 21.8744 18.7518 22.6633 17.1286C23.4521 15.5054 23.862 13.7242 23.862 11.9194C23.862 10.1146 23.4521 8.33341 22.6633 6.71017C21.8744 5.08693 20.7272 3.66404 19.3082 2.54886C21.0665 1.1665 23.1783 0.30681 25.4022 0.0680864C27.626 -0.170637 29.8721 0.221239 31.8838 1.19891C33.8954 2.17658 35.5913 3.70058 36.7776 5.59667C37.964 7.49276 38.5928 9.68441 38.5922 11.921Z" fill="#F79E1B"/>
<path d="M37.4533 19.3036V18.9229H37.6089V18.8434H37.2149V18.9229H37.3838V19.3036H37.4533ZM38.218 19.3036V18.8434H38.0988L37.9598 19.1745L37.8207 18.8434H37.7148V19.3036H37.8009V18.9725L37.93 19.2738H38.0194L38.1485 18.9725V19.3036H38.218Z" fill="#F79E1B"/>
</svg>
